<?xml version="1.0" encoding="utf-8"?>
<!-- Generator: Adobe Illustrator 16.0.4, SVG Export Plug-In . SVG Version: 6.00 Build 0)  -->
<!DOCTYPE svg PUBLIC "-//W3C//DTD SVG 1.1//EN" "http://www.w3.org/Graphics/SVG/1.1/DTD/svg11.dtd">
<svg version="1.1" id="Layer_1" xmlns="http://www.w3.org/2000/svg" xmlns:xlink="http://www.w3.org/1999/xlink" x="0px" y="0px"
	 width="704px" height="132px" viewBox="0 0 704 132" enable-background="new 0 0 704 132" xml:space="preserve">
<g id="Layer_2" display="none">
	<rect x="132" display="inline" fill="#008D14" width="44" height="44"/>
	<rect x="176" display="inline" fill="#0087EE" width="44" height="44"/>
	<rect x="220" display="inline" fill="#008D14" width="44" height="44"/>
	<rect x="264" display="inline" fill="#0087EE" width="44" height="44"/>
	<rect x="308" display="inline" fill="#008D14" width="44" height="44"/>
	<rect x="352" display="inline" fill="#0087EE" width="44" height="44"/>
	<rect x="396" display="inline" fill="#008D14" width="44" height="44"/>
	<rect x="484" display="inline" fill="#008D14" width="44" height="44"/>
	<rect x="440" display="inline" fill="#0087EE" width="44" height="44"/>
	<rect x="528" display="inline" fill="#0087EE" width="44" height="44"/>
	<rect display="inline" fill="#0087EE" width="44" height="44"/>
	<rect x="44" display="inline" fill="#008D14" width="44" height="44"/>
	<rect x="88" display="inline" fill="#0087EE" width="44" height="44"/>
	<rect y="44" display="inline" fill="#0087EE" width="44" height="44"/>
	<rect x="44" y="44" display="inline" fill="#008D14" width="44" height="44"/>
	<rect x="88" y="44" display="inline" fill="#0087EE" width="44" height="44"/>
	<rect x="131.673" y="88" display="inline" fill="#008D14" width="44" height="44"/>
	<rect y="88" display="inline" fill="#0087EE" width="44" height="44"/>
	<rect x="44" y="88" display="inline" fill="#008D14" width="44" height="44"/>
	<rect x="88" y="88" display="inline" fill="#0087EE" width="44" height="44"/>
</g>
<g id="Layer_1_1_">
	<polygon fill="#2D5F82" points="149.981,12 148,13.805 156.036,22 148,30.195 149.981,32 160,22 	"/>
	<polygon fill="#308E4F" points="193.981,12 192,13.805 200.036,22 192,30.195 193.981,32 204,22 	"/>
	<polygon fill="#0087F6" points="237.982,12 236,13.805 244.037,22 236,30.195 237.982,32 248,22 	"/>
	<polygon fill="#E63490" points="281.98,12 280,13.805 288.036,22 280,30.195 281.98,32 292,22 	"/>
	<polygon fill="#F07910" points="325.982,12 324,13.805 332.037,22 324,30.195 325.982,32 336,22 	"/>
	<polygon fill="#9A268E" points="369.981,12 368,13.805 376.036,22 368,30.195 369.981,32 380,22 	"/>
	<polygon fill="#2DCAFF" points="413.981,12 412,13.805 420.036,22 412,30.195 413.981,32 424,22 	"/>
	<polygon fill="#9B9B9B" points="457.98,12 456,13.805 464.035,22 456,30.195 457.98,32 468,22 	"/>
	<g>
		<polygon points="501.98,12 500,13.805 508.035,22 500,30.195 501.98,32 512,22 		"/>
	</g>
	<path d="M28.886,16.933H26.01l-0.401-1.586c0-0.463-0.422-0.847-0.941-0.847h-5.331c-0.521,0-0.941,0.375-0.941,0.847l-0.405,1.586
		h-2.875c-1.344,0-2.432,0.985-2.432,2.188v8.191c0,1.209,1.089,2.188,2.432,2.188h13.773c1.345,0,2.429-0.979,2.429-2.188v-8.193
		C31.315,17.912,30.229,16.933,28.886,16.933z"/>
	<circle fill="none" stroke="#FFFFFF" stroke-width="1.5" stroke-miterlimit="10" cx="21.995" cy="23.179" r="3.985"/>
	
		<line fill="none" stroke="#FFFFFF" stroke-width="1.5" stroke-linecap="round" stroke-miterlimit="10" x1="27.781" y1="20.14" x2="29.02" y2="20.14"/>
	<polyline points="62,21.737 66,17 70,21.736 	"/>
	<rect x="64.719" y="21.1" width="2.562" height="5.9"/>
	<circle stroke="#FFFFFF" stroke-miterlimit="10" cx="110" cy="22" r="8"/>
	<polygon fill="#FFFFFF" points="107.832,23.941 107.832,25.359 114.242,22 107.832,18.64 107.832,20.051 	"/>
	<path fill="#FFFFFF" d="M28.886,60.933H26.01l-0.401-1.586c0-0.463-0.422-0.847-0.941-0.847h-5.331
		c-0.521,0-0.941,0.375-0.941,0.847l-0.405,1.586h-2.875c-1.344,0-2.432,0.985-2.432,2.188v8.191c0,1.209,1.089,2.188,2.432,2.188
		h13.773c1.345,0,2.429-0.979,2.429-2.188v-8.193C31.315,61.912,30.229,60.933,28.886,60.933z"/>
	<circle fill="none" stroke="#000000" stroke-width="1.5" stroke-miterlimit="10" cx="21.995" cy="67.179" r="3.985"/>
	
		<line fill="none" stroke="#000000" stroke-width="1.5" stroke-linecap="round" stroke-miterlimit="10" x1="27.781" y1="64.14" x2="29.02" y2="64.14"/>
	<polyline fill="#999999" points="62,65.737 66,61 70,65.736 	"/>
	<rect x="64.719" y="65.1" fill="#999999" width="2.562" height="5.9"/>
	<circle fill="none" stroke="#FFFFFF" stroke-miterlimit="10" cx="110" cy="66" r="8"/>
	<polygon fill="#FFFFFF" points="107.832,67.941 107.832,69.359 114.242,66 107.832,62.64 107.832,64.051 	"/>
	<path fill="#FFFFFF" d="M28.886,104.934H26.01l-0.401-1.586c0-0.464-0.422-0.848-0.941-0.848h-5.331
		c-0.521,0-0.941,0.375-0.941,0.848l-0.405,1.586h-2.875c-1.344,0-2.432,0.984-2.432,2.188v8.19c0,1.209,1.089,2.188,2.432,2.188
		h13.773c1.345,0,2.429-0.979,2.429-2.188v-8.192C31.315,105.912,30.229,104.934,28.886,104.934z"/>
	<circle fill="none" stroke="#000000" stroke-width="1.5" stroke-miterlimit="10" cx="21.995" cy="111.179" r="3.985"/>
	
		<line fill="none" stroke="#000000" stroke-width="1.5" stroke-linecap="round" stroke-miterlimit="10" x1="27.781" y1="108.141" x2="29.02" y2="108.141"/>
	<polyline fill="#FFFFFF" points="62,109.736 66,105 70,109.736 	"/>
	<rect x="64.719" y="109.1" fill="#FFFFFF" width="2.562" height="5.9"/>
</g>
<polygon fill="#FFFFFF" points="149.654,100 147.673,101.805 155.709,110 147.673,118.195 149.654,120 159.673,110 "/>
<g>
	<g>
		<polygon fill="#2D5F82" points="549.938,17 542.113,25.823 543.291,27 549.938,19.353 556.584,27 557.762,25.823 		"/>
	</g>
</g>
<g>
	<g>
		<polygon fill="#2D5F82" points="593.979,27 601.804,18.177 600.626,17 593.979,24.647 587.333,17 586.155,18.177 		"/>
	</g>
</g>
<g>
	<g>
		<polygon points="638.001,17 630.177,25.823 631.354,27 638.001,19.353 644.647,27 645.825,25.823 		"/>
	</g>
</g>
<g>
	<g>
		<polygon points="682,27 689.824,18.177 688.646,17 682,24.647 675.354,17 674.176,18.177 		"/>
	</g>
</g>
</svg>
