<svg xmlns="http://www.w3.org/2000/svg" width="31" height="31" viewBox="0 0 31 31">
    <g fill="none" fill-rule="evenodd">
        <rect width="30" height="30" fill="#D0011B" rx="2"/>
        <path fill="#FFF" d="M15.436 25C18.686 25 22 22.792 22 18.408 22 11.528 15.854 5.672 13.44 5c1.963 3.808 2.092 9.056.29 11.648l-2.381-5.792C10.159 13.48 9 15.368 9 18.664 9 22.856 12.218 25 15.436 25z"/>
        <rect width="30" height="30" fill="#D0011B" rx="2"/>
        <path fill="#FFF" d="M15.436 25C18.686 25 22 22.792 22 18.408 22 11.528 15.854 5.672 13.44 5c1.963 3.808 2.092 9.056.29 11.648l-2.381-5.792C10.159 13.48 9 15.368 9 18.664 9 22.856 12.218 25 15.436 25z"/>
        <path fill="#FFF" d="M28.623 1.451c.782-.782 1.416-.519 1.416.575v26.017c0 1.1-.898 1.991-1.991 1.991H2.03c-1.1 0-1.365-.626-.575-1.417L28.623 1.451z" opacity=".17"/>
    </g>
</svg>
